<svg xmlns="http://www.w3.org/2000/svg" version="1.1" viewBox="-5.0 -10.0 110.0 135.0" fill="#10B981">
 <path d="m20.797 89v7.2031h15.391v-7.2031z"/>
 <path d="m1.5625 89h15.375v7.2188h-15.375z"/>
 <path d="m40.031 89v7.2031h15.391v-7.2031z"/>
 <path d="m11.172 78.656h15.375v7.2188h-15.375z"/>
 <path d="m45.797 78.656h-15.391v7.2031h15.391z"/>
 <path d="m36.188 68.312h-15.391v7.2031h15.391z"/>
 <path d="m46.672 60.656 1.9688 0.3125 8.75-12.672c-0.3125-0.9375-0.71875-1.8281-1.3281-2.625l-5-6.6875c-1-1.3438-2.9062-1.625-4.2656-0.60938l-2.9375 2.2031-15.656-20.953 1.1094-7.6875c0.078125-0.51562-0.0625-1.0312-0.375-1.4531l-2.8906-3.875c0.046875-0.60938-0.10938-1.2344-0.5-1.7656-0.85938-1.1562-2.5-1.3906-3.6562-0.53125l-11.125 8.3125c-1.1562 0.85938-1.3906 2.5-0.53125 3.6562 0.39062 0.53125 0.95312 0.85938 1.5469 0.98438l2.8906 3.875c0.3125 0.42188 0.78125 0.6875 1.2812 0.76562l7.6875 1.1094 15.656 20.953-2.9375 2.2031c-1.3438 1-1.625 2.9062-0.60938 4.2656l5 6.6875c1.4219 1.9062 3.5469 3.1875 5.9062 3.5625zm-22.078-43.328-2.0625 1.5312-5.1719-0.75-1.8594-2.5 7.9844-5.9688 1.8594 2.5-0.75 5.1719z"/>
 <path d="m94.266 96.219h-35.719v-10.328h-9.625v-15.25l13.906-20.156c1.5938-2.4844 5.1875-2.5781 6.8906-0.17188l27.938 39.328c1.9688 2.7656 0 6.5781-3.3906 6.5781z"/>
</svg>